Coordinates
version=1
nRows=7
nColumns=40
inDegrees=yes

Units are S.I. units (second, meters, Newtons, ...)
Angles are in degrees.

endheader
time	pelvis_tilt	pelvis_list	pelvis_rotation	pelvis_tx	pelvis_ty	pelvis_tz	hip_flexion_r	hip_adduction_r	hip_rotation_r	knee_angle_r	knee_angle_r_beta	ankle_angle_r	subtalar_angle_r	mtp_angle_r	hip_flexion_l	hip_adduction_l	hip_rotation_l	knee_angle_l	knee_angle_l_beta	ankle_angle_l	subtalar_angle_l	mtp_angle_l	lumbar_extension	lumbar_bending	lumbar_rotation	arm_flex_r	arm_add_r	arm_rot_r	elbow_flex_r	pro_sup_r	wrist_flex_r	wrist_dev_r	arm_flex_l	arm_add_l	arm_rot_l	elbow_flex_l	pro_sup_l	wrist_flex_l	wrist_dev_l
     36.13500000	     -3.34677705	     -2.84285571	     -3.33780951	      0.92645962	      0.92754433	      0.44249040	     27.17240682	     -1.02714157	    -14.56574658	     15.19474984	     15.19474984	      5.06149697	      2.30324466	      7.15466345	      1.05098927	     -2.15226883	    -11.88021311	     12.89078311	     12.89078311	     16.11581157	    -10.06537560	     -4.41255680	     -8.94493081	      6.12966008	      3.21597574	    -14.59881733	    -11.63207947	     -8.33678555	     24.00949408	     46.68884393	      0.00000000	      0.00000000	     26.66957932	    -16.24779371	     -9.36684382	     72.13704407	     47.43266488	      0.00000000	      0.00000000
     36.14707143	     -3.41361072	     -2.85712211	     -3.39331317	      0.92822307	      0.92614576	      0.44412628	     26.73545002	     -0.80925091	    -14.90795058	     15.10782913	     15.10782913	      4.99527294	      2.20821508	      7.18786853	      0.39897056	     -2.22883999	    -11.88133187	     12.77347085	     12.77347085	     16.54566666	    -10.01411596	     -4.45664982	     -8.58323506	      6.13283391	      3.18079393	    -15.29039345	    -11.57688775	     -8.35328410	     23.82969559	     46.69076211	      0.00000000	      0.00000000	     26.57646474	    -16.28518870	     -9.49930902	     72.38410355	     47.44738677	      0.00000000	      0.00000000
     36.15914286	     -3.31452014	     -2.92211211	     -3.47803634	      0.93025596	      0.92504635	      0.44592368	     25.98267029	     -0.52043453	    -15.04933544	     15.02404430	     15.02404430	      4.22394311	      2.10977899	      5.37991507	     -0.44958297	     -2.41544337	    -12.35212947	     12.73935102	     12.73935102	     17.64719120	     -8.97335263	     -3.33708369	     -8.48693805	      6.15772436	      3.01883747	    -15.84928704	    -11.57678249	     -8.45004821	     24.43315138	     46.66100430	      0.00000000	      0.00000000	     25.88673327	    -16.04775735	    -10.44917671	     74.13536933	     47.56283610	      0.00000000	      0.00000000
     36.17121429	     -3.31811243	     -3.05015556	     -3.48414344	      0.93229007	      0.92379981	      0.44779724	     25.50035282	     -0.24824899	    -15.11573625	     15.48538167	     15.48538167	      4.02598400	      1.91950419	      5.18598928	     -1.13478431	     -2.64537655	    -12.30801156	     12.71912989	     12.71912989	     18.04466988	     -8.95746587	     -3.33344482	     -8.17652660	      6.27542908	      3.02738684	    -16.20438182	    -11.51847334	     -8.43221742	     24.26566023	     46.66313510	      0.00000000	      0.00000000	     25.64362471	    -15.92240913	    -10.46526997	     74.17947085	     47.56461427	      0.00000000	      0.00000000
     36.18328571	     -3.24625317	     -3.13989522	     -3.54008453	      0.93446920	      0.92267331	      0.45000907	     24.87237760	      0.12556956	    -14.52715174	     15.77827227	     15.77827227	      2.58810379	      0.69890958	      1.61408823	     -1.78886951	     -2.96376654	    -12.85035866	     13.06347075	     13.06347075	     19.41160002	     -7.73131361	     -1.66600985	     -7.99334314	      6.27673102	      3.02242757	    -16.24928964	    -11.45375752	     -8.25841198	     23.87092098	     46.66505256	      0.00000000	      0.00000000	     25.08869529	    -15.56176026	    -11.09065722	     75.11227750	     47.63982431	      0.00000000	      0.00000000
     36.19535714	     -3.19918047	     -3.22742752	     -3.52917999	      0.93655326	      0.92162448	      0.45218160	     24.51421290	      0.32501380	    -14.29732787	     16.66553406	     16.66553406	      2.30266082	      0.23494531	      0.59368467	     -2.33635264	     -3.23791898	    -12.87049576	     13.43389853	     13.43389853	     19.95356058	     -7.63095198	     -1.31711770	     -7.75807716	      6.30396062	      2.93531812	    -16.14466229	    -11.35914169	     -8.18288453	     23.72516940	     46.66661836	      0.00000000	      0.00000000	     24.66482286	    -15.44989471	    -11.18479175	     75.05198299	     47.64903352	      0.00000000	      0.00000000
     36.20742857	     -3.17640852	     -3.41472474	     -3.49707212	      0.93859692	      0.92075760	      0.45456847	     24.12614064	      0.70921559	    -13.75359491	     17.38890580	     17.38890580	      1.96545288	     -0.70129322	     -0.67768583	     -2.67315376	     -3.71872216	    -13.00159048	     14.18043970	     14.18043970	     20.62283271	     -7.37312321	     -0.76528522	     -7.51496953	      6.42927362	      2.86612577	    -15.86623438	    -11.31353586	     -8.08201223	     23.44114845	     46.67546300	      0.00000000	      0.00000000	     24.13201018	    -15.20379849	    -11.43528040	     75.11336331	     47.67093083	      0.00000000	      0.00000000
